<!DOCTYPE svg PUBLIC "-//W3C//DTD SVG 1.1//EN" "http://www.w3.org/Graphics/SVG/1.1/DTD/svg11.dtd">
<!-- Uploaded to: SVG Repo, www.svgrepo.com, Transformed by: SVG Repo Mixer Tools -->
<svg fill="#2db92f" version="1.1" id="Capa_1" xmlns="http://www.w3.org/2000/svg" xmlns:xlink="http://www.w3.org/1999/xlink" width="800px" height="800px" viewBox="0 0 84.848 84.847" xml:space="preserve" stroke="#2db92f">
<g id="SVGRepo_bgCarrier" stroke-width="0"/>
<g id="SVGRepo_tracerCarrier" stroke-linecap="round" stroke-linejoin="round"/>
<g id="SVGRepo_iconCarrier"> <g> <path d="M70.408,52.157c-1.277-9.483-6.506-16.391-12.943-16.391H27.386c-6.441,0-11.667,6.907-12.947,16.391 c-4.644,2.348-7.052,7.22-7.052,12.872c0,4.341,1.424,8.226,4.188,10.86v8.958h11.146V79.4h39.402v5.447h11.146v-8.963 c2.77-2.635,4.192-6.52,4.192-10.855C77.461,59.376,75.052,54.504,70.408,52.157z M27.386,39.114h30.079 c4.234,0,7.945,5.02,9.325,11.822c-0.688-0.125-1.423-0.2-2.181-0.239c0-0.014,0.005-0.025,0.005-0.039 c0-3.946-3.21-7.155-7.153-7.155c-3.944,0-7.151,3.209-7.151,7.155H21.163c-1.101,0-2.135,0.096-3.107,0.278 C19.435,44.133,23.146,39.114,27.386,39.114z M62.388,50.658h-9.845c0-2.719,2.208-4.925,4.922-4.925 C60.18,45.733,62.388,47.939,62.388,50.658z M19.493,69.696c-2.576,0-4.669-2.085-4.669-4.667c0-2.577,2.093-4.674,4.669-4.674 c2.579,0,4.672,2.094,4.672,4.674C24.165,67.611,22.072,69.696,19.493,69.696z M55.987,68.866H28.862 c-0.616,0-1.117-0.502-1.117-1.12s0.499-1.115,1.117-1.115h27.125c0.615,0,1.117,0.497,1.117,1.115 C57.103,68.364,56.603,68.866,55.987,68.866z M55.987,64.773H28.862c-0.616,0-1.117-0.502-1.117-1.117 c0-0.618,0.499-1.113,1.117-1.113h27.125c0.615,0,1.117,0.495,1.117,1.113C57.103,64.271,56.603,64.773,55.987,64.773z M65.354,69.696c-2.58,0-4.672-2.085-4.672-4.667c0-2.577,2.092-4.674,4.672-4.674c2.577,0,4.671,2.094,4.671,4.674 C70.024,67.611,67.931,69.696,65.354,69.696z M30.495,0v27.504h23.858V0H30.495z M34.25,7.349c0.406-0.459,1.112-0.502,1.574-0.096 l4.286,3.812l8.923-7.722c0.466-0.402,1.17-0.351,1.572,0.114c0.401,0.465,0.354,1.172-0.112,1.573L40.09,14.031l-5.746-5.109 C33.885,8.512,33.842,7.812,34.25,7.349z M34.902,23.786h-1.025c-0.616,0-1.114-0.502-1.114-1.117c0-0.619,0.499-1.117,1.114-1.117 h1.025c0.617,0,1.117,0.498,1.117,1.117C36.019,23.287,35.519,23.786,34.902,23.786z M34.902,19.324h-1.025 c-0.616,0-1.114-0.502-1.114-1.117c0-0.618,0.499-1.115,1.114-1.115h1.025c0.617,0,1.117,0.497,1.117,1.115 C36.019,18.822,35.519,19.324,34.902,19.324z M50.675,23.786H38.077c-0.617,0-1.117-0.502-1.117-1.117 c0-0.619,0.498-1.117,1.117-1.117h12.598c0.615,0,1.115,0.498,1.115,1.117C51.787,23.287,51.29,23.786,50.675,23.786z M50.675,19.324H38.077c-0.617,0-1.117-0.502-1.117-1.117c0-0.618,0.498-1.115,1.117-1.115h12.598c0.615,0,1.115,0.497,1.115,1.115 C51.787,18.822,51.29,19.324,50.675,19.324z"/> </g> </g>
</svg>